<?xml version="1.0" ?><!DOCTYPE svg  PUBLIC '-//W3C//DTD SVG 1.1//EN'  'http://www.w3.org/Graphics/SVG/1.1/DTD/svg11.dtd'><svg enable-background="new 0 0 512 512" height="512px" id="Healthy_x5F_tooth" version="1.1" viewBox="0 0 512 512" width="512px" xml:space="preserve" xmlns="http://www.w3.org/2000/svg" xmlns:xlink="http://www.w3.org/1999/xlink"><g><path d="M229.923,140.366c-13.925,0-27.845-2.097-41.673-6.292l-35.102-10.639c-9.003-2.727-17.77-3.188-26.053-1.373   c-2.697,0.588-5.364-1.116-5.955-3.813c-0.591-2.698,1.116-5.364,3.813-5.955c9.974-2.186,20.435-1.657,31.094,1.571l35.104,10.64   c25.728,7.805,51.815,7.805,77.542,0l35.104-10.64c13.893-4.208,27.254-3.853,39.714,1.055c2.569,1.012,3.832,3.915,2.82,6.484   c-1.013,2.57-3.918,3.83-6.484,2.82c-10.315-4.063-21.468-4.328-33.15-0.789l-35.102,10.64   C257.771,138.269,243.845,140.366,229.923,140.366z"/><path d="M297.77,489.561l-0.19-0.001c-9.368-0.046-17.298-7.521-18.024-17.015c-4.895-63.874-28.758-141.897-49.632-141.897   c-20.875,0-44.738,78.026-49.632,141.901c-0.728,9.492-8.655,16.963-18.048,17.012h-0.166c-16.719,0-31.81-12.359-35.882-29.388   L72.243,234.576c-3.969-16.595-4.904-33.162-2.781-49.241c0.361-2.738,2.874-4.663,5.611-4.303   c2.737,0.361,4.664,2.874,4.302,5.611c-1.961,14.862-1.089,30.207,2.594,45.606l53.952,225.597   c2.961,12.379,14.205,21.714,26.156,21.714c0.009,0,0.106,0,0.115,0c4.226-0.021,7.796-3.438,8.128-7.775   c2.413-31.5,9.689-68.535,18.989-96.652c11.959-36.154,25.623-54.485,40.613-54.485c14.99,0,28.654,18.331,40.612,54.483   c9.3,28.115,16.576,65.148,18.99,96.65c0.332,4.342,3.904,7.758,8.131,7.779h0.113c11.95,0,23.194-9.335,26.155-21.714   l42.591-178.092c0.642-2.685,3.341-4.347,6.026-3.7c2.686,0.643,4.342,3.34,3.7,6.026l-42.591,178.092   C329.578,477.201,314.487,489.561,297.77,489.561z"/><path d="M83.497,159.467c-0.719,0-1.448-0.155-2.142-0.484c-2.494-1.185-3.556-4.167-2.371-6.662   c4.671-9.835,10.649-18.199,17.771-24.858c2.017-1.886,5.181-1.78,7.067,0.237c1.886,2.017,1.78,5.181-0.237,7.067   c-6.2,5.798-11.438,13.147-15.568,21.845C87.162,158.413,85.367,159.467,83.497,159.467z"/><path d="M183.083,300.462c-2.398,0-4.459-1.702-4.911-4.058c-6.159-32.102-10.104-36.045-42.205-42.205   c-2.354-0.452-4.058-2.513-4.058-4.911s1.703-4.458,4.058-4.911c32.102-6.16,36.046-10.104,42.205-42.205   c0.452-2.355,2.513-4.058,4.911-4.058c2.397,0,4.458,1.703,4.91,4.058c6.16,32.101,10.104,36.045,42.205,42.205   c2.355,0.452,4.058,2.513,4.058,4.911s-1.702,4.458-4.058,4.911c-32.101,6.16-36.045,10.104-42.205,42.205   C187.541,298.76,185.48,300.462,183.083,300.462z M157.823,249.289c13.843,4.693,20.566,11.417,25.26,25.259   c4.693-13.843,11.417-20.566,25.259-25.259c-13.842-4.693-20.565-11.417-25.259-25.259   C178.39,237.872,171.666,244.595,157.823,249.289z"/><path d="M240.98,107.196c-2.398,0-4.458-1.703-4.91-4.058c-4.927-25.673-7.737-28.484-33.41-33.41   c-2.355-0.452-4.058-2.513-4.058-4.911s1.702-4.458,4.058-4.911c25.673-4.926,28.483-7.737,33.41-33.41   c0.452-2.355,2.512-4.058,4.91-4.058s4.458,1.703,4.91,4.058c4.926,25.673,7.737,28.484,33.41,33.41   c2.355,0.452,4.058,2.513,4.058,4.911s-1.703,4.458-4.058,4.911c-25.673,4.926-28.484,7.736-33.41,33.41   C245.438,105.493,243.379,107.196,240.98,107.196z M223.383,64.818c9.072,3.539,14.059,8.525,17.598,17.597   c3.539-9.072,8.525-14.059,17.597-17.597c-9.071-3.539-14.058-8.525-17.597-17.598C237.441,56.292,232.455,61.279,223.383,64.818z"/><path d="M378.945,247.26c-2.398,0-4.458-1.703-4.91-4.058c-8.135-42.389-13.343-47.597-55.731-55.731   c-2.355-0.452-4.058-2.513-4.058-4.911s1.702-4.458,4.058-4.911c42.389-8.134,47.597-13.342,55.731-55.731   c0.452-2.355,2.512-4.058,4.91-4.058s4.458,1.703,4.91,4.058c8.135,42.389,13.343,47.597,55.731,55.731   c2.355,0.452,4.058,2.513,4.058,4.911s-1.702,4.458-4.058,4.911c-42.389,8.134-47.597,13.342-55.731,55.731   C383.403,245.557,381.344,247.26,378.945,247.26z M341.543,182.561c21.989,6.398,31.005,15.413,37.402,37.403   c6.397-21.99,15.413-31.005,37.403-37.403c-21.99-6.398-31.006-15.413-37.403-37.403   C372.548,167.147,363.532,176.163,341.543,182.561z"/></g></svg>